<?xml version="1.0" encoding="UTF-8" standalone="no" ?>
<!DOCTYPE svg PUBLIC "-//W3C//DTD SVG 1.1//EN" "http://www.w3.org/Graphics/SVG/1.1/DTD/svg11.dtd">
<svg xmlns="http://www.w3.org/2000/svg" xmlns:xlink="http://www.w3.org/1999/xlink" version="1.1" viewBox="0 0 600 480" xml:space="preserve">

<defs>
</defs>
<g transform="matrix(0.3 0 0 0.3 307.01 185.99)"  >
<path style="stroke: none; stroke-width: 1; stroke-dasharray: none; stroke-linecap: butt; stroke-dashoffset: 0; stroke-linejoin: miter; stroke-miterlimit: 4; fill: rgb(55,182,255); fill-rule: nonzero; opacity: 1;"  transform=" translate(-250.01, -232.96)" d="M 286 290.62 L 150.57 290.62 C 143.06 290.62 143.04 290.62 141.98 298.25 Q 133.98 355.25 126.03999999999999 412.17 C 123.97 427.07 122.03999999999999 442 119.92999999999999 456.90000000000003 C 118.64999999999999 465.84000000000003 118.53999999999999 465.90000000000003 109.47 465.90000000000003 Q 58.94 465.90000000000003 8.409999999999997 465.90000000000003 C -0.5900000000000034 465.90000000000003 -0.6800000000000033 465.61 0.559999999999997 456.70000000000005 Q 7.13 409.85 13.62 363 Q 20.45 314.3 27.33 265.62 Q 33.83 219.32 40.25 173.01 Q 46.69 127 53.1 81 Q 58.16 44.77 63.16 8.57 C 63.26 7.86 63.37 7.15 63.5 6.45 C 64.5 1.25 64.89 1.0300000000000002 70.12 0.7599999999999998 C 82.29 0.12999999999999978 94.48 -0.2400000000000002 106.65 0.20999999999999974 C 116.84 0.5599999999999997 127.03 0.7899999999999997 137.22 0.7599999999999998 C 149.56 0.7599999999999998 161.9 0.3499999999999998 174.22 0.12999999999999978 C 175.3 0.12999999999999978 176.37 0.12999999999999978 177.45 0.12999999999999978 C 183.23999999999998 0.2999999999999998 183.67 0.6899999999999998 182.86999999999998 6.37 Q 177.74999999999997 42.839999999999996 172.51999999999998 79.28 Q 165.98999999999998 125.28 159.51999999999998 171.34 C 158.95999999999998 175.34 159.51999999999998 176.06 163.79 176.05 C 172.56 176.05 181.35 176.59 190.10999999999999 175.58 C 192.61999999999998 175.29000000000002 195.10999999999999 175.82000000000002 197.6 175.93 C 208.32999999999998 176.38 219.06 176.07 229.79 175.70000000000002 C 232.12 175.62 234.44 175.44000000000003 236.79 175.44000000000003 C 290.9 175.44000000000003 345.02 175.23000000000002 399.13 175.53000000000003 C 415.78 175.62000000000003 432.42 175.20000000000002 449.06 175.32000000000002 C 455.06 175.32000000000002 458.98 177.17000000000002 462.41 182.32000000000002 C 473.91 199.41000000000003 485.91 216.18 497.71000000000004 233.07000000000002 C 498.02000000000004 233.51000000000002 498.36 233.93000000000004 498.64000000000004 234.38000000000002 C 500.64000000000004 237.51000000000002 500.64000000000004 237.85000000000002 497.64000000000004 240.01000000000002 C 494.32000000000005 242.45000000000002 490.95000000000005 244.82000000000002 487.64000000000004 247.25000000000003 C 469.55000000000007 260.45000000000005 451.40000000000003 273.58000000000004 433.4200000000001 286.93 C 430.00893134320484 289.5431874534231 425.80560897856776 290.909002529086 421.51000000000005 290.8 Q 353.78000000000003 290.68 286.05000000000007 290.8 Z" stroke-linecap="round" />
</g>
<g transform="matrix(0.3 0 0 0.3 341.77 136.62)"  >
<path style="stroke: none; stroke-width: 1; stroke-dasharray: none; stroke-linecap: butt; stroke-dashoffset: 0; stroke-linejoin: miter; stroke-miterlimit: 4; fill: rgb(201,228,101); fill-rule: nonzero; opacity: 1;"  transform=" translate(-365.89, -71.69)" d="M 355.72 143.34 L 305.72 143.34 C 304.29 143.34 302.85 143.34 301.42 143.28 C 296.87 143.03 295.97 142.08 296.61 137.7 C 298.39 125.47999999999999 300.35 113.28999999999999 302.1 101.07 C 305.24 79.28 308.27000000000004 57.47999999999999 311.37 35.69 Q 313.53000000000003 20.54 315.8 5.409999999999997 C 316.38 1.5599999999999965 317.11 0.7599999999999962 321.06 0.849999999999997 C 333.76 1.109999999999997 346.41 -0.05000000000000304 359.15 0.5099999999999969 C 375.4260905008158 1.2952868030338318 391.7324112506792 1.215173865879931 407.9999999999999 0.2699999999999878 C 415.31 -0.18 422.67 0.05000000000000002 430 0.14 C 435.13 0.2 435.85 1.1400000000000001 435.1 6.39 C 432.54 24.47 429.90000000000003 42.53 427.36 60.61 Q 422.11 98.11 416.94 135.61 C 416.89 135.96 416.86 136.32000000000002 416.81 136.67000000000002 C 415.93 142.73000000000002 415.43 143.26000000000002 409.37 143.29000000000002 C 393.62 143.37000000000003 377.86 143.36 362.11 143.38000000000002 L 355.67 143.38000000000002 Z" stroke-linecap="round" />
</g>
<g transform="matrix(0.31 0 0 0.37 328.74 230.38)"  >
<path style="stroke: none; stroke-width: 1; stroke-dasharray: none; stroke-linecap: butt; stroke-dashoffset: 0; stroke-linejoin: miter; stroke-miterlimit: 4; fill: rgb(55,182,255); fill-rule: nonzero; opacity: 1;"  transform=" translate(-320.95, -394.72)" d="M 331 323.71 L 382.59000000000003 323.71 C 383.48 323.71 384.38000000000005 323.71 385.27000000000004 323.71 C 389.89000000000004 323.93 390.65000000000003 324.71 390.03000000000003 329.27 C 388.67 339.2 387.24 349.13 385.83000000000004 359.06 Q 380.52000000000004 396.56 375.21000000000004 434.06 C 374.03000000000003 442.4 372.92 450.74 371.75000000000006 459.06 C 370.9100000000001 464.99 370.14000000000004 465.81 364.28000000000003 465.81 Q 310.82000000000005 465.81 257.34000000000003 465.81 C 256.98 465.81 256.63000000000005 465.81 256.27000000000004 465.81 C 251.87000000000003 465.52 251.27000000000004 464.81 251.89000000000004 460.56 C 252.89000000000004 454 253.89000000000004 447.45 254.77000000000004 440.89 Q 261.68000000000006 391.41999999999996 268.58000000000004 341.89 C 269.20000000000005 337.46 269.86 333.03 270.58000000000004 328.61 C 271.28000000000003 324.43 271.88000000000005 323.8 276.17 323.73 C 284.22 323.59000000000003 292.29 323.64000000000004 300.35 323.63 L 331 323.63 Z" stroke-linecap="round" />
</g>
<g transform="matrix(1 0 0 1 0 0)"  >
<path style="stroke: none; stroke-width: 1; stroke-dasharray: none; stroke-linecap: butt; stroke-dashoffset: 0; stroke-linejoin: miter; stroke-miterlimit: 4; fill: rgb(50,50,50); fill-rule: nonzero; opacity: 1;"  transform=" translate(0, 0)" d="" stroke-linecap="round" />
</g>
<g transform="matrix(1 0 0 1 308.21 297.87)"  >
<path style="stroke: none; stroke-width: 1; stroke-dasharray: none; stroke-linecap: butt; stroke-dashoffset: 0; stroke-linejoin: miter; stroke-miterlimit: 4; fill: rgb(50,50,50); fill-rule: nonzero; opacity: 1;"  transform=" translate(-308.21, -297.87)" d="M 188.89 310.15 L 188.89 277.16 L 193.03 277.16 L 193.03 290.98 L 208.42 290.98 L 208.42 277.16 L 212.61 277.16 L 212.61 310.15 L 208.42 310.15 L 208.42 294.58 L 193.03 294.58 L 193.03 310.15 L 188.89 310.15 Z M 230.74 310.73 Q 226.02 310.73 222.87 307.36 L 222.87 307.36 Q 219.45 303.8 219.45 297.95 L 219.45 297.95 Q 219.45 292.06 222.87 288.46 L 222.87 288.46 Q 226.06 285.08 230.74 285.08 L 230.74 285.08 Q 235.42 285.08 238.62 288.46 L 238.62 288.46 Q 242.04 292.06 242.04 297.95 L 242.04 297.95 Q 242.04 303.8 238.62 307.36 L 238.62 307.36 Q 235.47 310.73 230.74 310.73 L 230.74 310.73 Z M 230.74 307.31 Q 233.94 307.31 235.88 304.75 L 235.88 304.75 Q 237.85 302.19 237.85 297.95 L 237.85 297.95 Q 237.85 293.72 235.88 291.16 L 235.88 291.16 Q 233.94 288.55 230.74 288.55 L 230.74 288.55 Q 227.59 288.55 225.61 291.16 L 225.61 291.16 Q 223.68 293.72 223.68 297.95 L 223.68 297.95 Q 223.68 302.19 225.61 304.75 L 225.61 304.75 Q 227.55 307.31 230.74 307.31 L 230.74 307.31 Z M 252.84 310.73 Q 248.52 310.73 248.52 305.29 L 248.52 305.29 L 248.52 274.33 L 252.66 274.33 L 252.66 305.56 Q 252.66 307.31 253.78 307.31 L 253.78 307.31 Q 254.19 307.31 254.64 307.22 L 254.64 307.22 L 255.22 310.38 Q 254.06 310.73 252.84 310.73 L 252.84 310.73 Z M 270.79 310.73 Q 266.07 310.73 262.92 307.36 L 262.92 307.36 Q 259.5 303.8 259.5 297.95 L 259.5 297.95 Q 259.5 292.06 262.92 288.46 L 262.92 288.46 Q 266.11 285.08 270.79 285.08 L 270.79 285.08 Q 275.47 285.08 278.67 288.46 L 278.67 288.46 Q 282.09 292.06 282.09 297.95 L 282.09 297.95 Q 282.09 303.8 278.67 307.36 L 278.67 307.36 Q 275.52 310.73 270.79 310.73 L 270.79 310.73 Z M 270.79 307.31 Q 273.99 307.31 275.92 304.75 L 275.92 304.75 Q 277.9 302.19 277.9 297.95 L 277.9 297.95 Q 277.9 293.72 275.92 291.16 L 275.92 291.16 Q 273.99 288.55 270.79 288.55 L 270.79 288.55 Q 267.64 288.55 265.66 291.16 L 265.66 291.16 Q 263.73 293.72 263.73 297.95 L 263.73 297.95 Q 263.73 302.19 265.66 304.75 L 265.66 304.75 Q 267.6 307.31 270.79 307.31 L 270.79 307.31 Z M 288.97 310.15 L 288.97 277.16 L 293.11 277.16 L 293.11 310.15 L 288.97 310.15 Z M 301.75 310.15 L 301.75 285.71 L 305.13 285.71 L 305.53 289.27 L 305.62 289.27 Q 309.72 285.08 313.81 285.08 L 313.81 285.08 Q 321.28 285.08 321.28 294.67 L 321.28 294.67 L 321.28 310.15 L 317.19 310.15 L 317.19 295.21 Q 317.19 288.69 312.55 288.69 L 312.55 288.69 Q 309.54 288.69 305.89 292.42 L 305.89 292.42 L 305.89 310.15 L 301.75 310.15 Z M 335.59 310.73 Q 330.51 310.73 326.5 307.36 L 326.5 307.36 L 328.48 304.61 Q 332.08 307.54 335.73 307.54 L 335.73 307.54 Q 338.07 307.54 339.37 306.41 L 339.37 306.41 Q 340.54 305.38 340.54 303.71 L 340.54 303.71 Q 340.54 301.1 334.96 299.08 L 334.96 299.08 Q 331.63 297.86 330.15 296.65 L 330.15 296.65 Q 327.85 294.8 327.85 292.01 L 327.85 292.01 Q 327.85 289 330.06 287.11 L 330.06 287.11 Q 332.35 285.08 336.27 285.08 L 336.27 285.08 Q 340.45 285.08 343.83 287.88 L 343.83 287.88 L 341.85 290.44 Q 338.88 288.28 336.31 288.28 L 336.31 288.28 Q 334.11 288.28 332.89 289.31 L 332.89 289.31 Q 331.77 290.3 331.77 291.83 L 331.77 291.83 Q 331.77 293.36 333.39 294.4 L 333.39 294.4 Q 334.29 295.03 337.03 296.06 L 337.03 296.06 Q 340.68 297.46 342.07 298.54 L 342.07 298.54 Q 344.46 300.43 344.46 303.49 L 344.46 303.49 Q 344.46 306.59 342.21 308.57 L 342.21 308.57 Q 339.78 310.73 335.59 310.73 L 335.59 310.73 Z M 350.26 310.15 L 350.26 285.71 L 354.4 285.71 L 354.4 310.15 L 350.26 310.15 Z M 352.33 280.67 Q 349.63 280.67 349.63 277.93 L 349.63 277.93 Q 349.63 275.27 352.33 275.27 L 352.33 275.27 Q 353.55 275.27 354.31 276 L 354.31 276 Q 355.08 276.76 355.08 277.93 L 355.08 277.93 Q 355.08 280.67 352.33 280.67 L 352.33 280.67 Z M 370.87 321.4 Q 366.33 321.4 363.63 319.69 L 363.63 319.69 Q 360.79 317.94 360.79 314.88 L 360.79 314.88 Q 360.79 311.54 364.39 309.34 L 364.39 309.34 L 364.39 309.11 Q 362.19 307.76 362.19 305.11 L 362.19 305.11 Q 362.19 302.41 364.89 300.56 L 364.89 300.56 L 364.89 300.38 Q 361.69 297.91 361.69 293.81 L 361.69 293.81 Q 361.69 289.9 364.44 287.42 L 364.44 287.42 Q 367 285.08 370.83 285.08 L 370.83 285.08 Q 372.81 285.08 374.29 285.71 L 374.29 285.71 L 382.8 285.71 L 382.8 288.86 L 377.8 288.86 Q 379.78 290.75 379.78 293.9 L 379.78 293.9 Q 379.78 297.73 377.22 300.11 L 377.22 300.11 Q 374.7 302.41 370.83 302.41 L 370.83 302.41 Q 368.94 302.41 367.23 301.55 L 367.23 301.55 Q 365.65 302.9 365.65 304.48 L 365.65 304.48 Q 365.65 307.13 369.93 307.13 L 369.93 307.13 L 374.74 307.13 Q 383.25 307.13 383.25 312.94 L 383.25 312.94 Q 383.25 316.45 379.92 318.88 L 379.92 318.88 Q 376.41 321.4 370.87 321.4 L 370.87 321.4 Z M 370.83 299.62 Q 373.03 299.62 374.52 298.04 L 374.52 298.04 Q 376.05 296.42 376.05 293.81 L 376.05 293.81 Q 376.05 291.2 374.52 289.58 L 374.52 289.58 Q 373.08 288.1 370.83 288.1 L 370.83 288.1 Q 368.62 288.1 367.18 289.58 L 367.18 289.58 Q 365.65 291.2 365.65 293.81 L 365.65 293.81 Q 365.65 296.42 367.18 298.04 L 367.18 298.04 Q 368.67 299.62 370.83 299.62 L 370.83 299.62 Z M 371.46 318.56 Q 374.88 318.56 377.08 317.03 L 377.08 317.03 Q 379.2 315.59 379.2 313.61 L 379.2 313.61 Q 379.2 310.51 374.25 310.51 L 374.25 310.51 L 370.02 310.51 Q 368.31 310.51 366.87 310.15 L 366.87 310.15 Q 364.39 311.9 364.39 314.29 L 364.39 314.29 Q 364.39 316.27 366.24 317.39 L 366.24 317.39 Q 368.13 318.56 371.46 318.56 L 371.46 318.56 Z M 388.02 310.15 L 388.02 274.33 L 392.16 274.33 L 392.16 284.14 L 391.98 289.18 Q 396.07 285.08 400.08 285.08 L 400.08 285.08 Q 407.55 285.08 407.55 294.67 L 407.55 294.67 L 407.55 310.15 L 403.45 310.15 L 403.45 295.21 Q 403.45 288.69 398.82 288.69 L 398.82 288.69 Q 395.8 288.69 392.16 292.42 L 392.16 292.42 L 392.16 310.15 L 388.02 310.15 Z M 422.98 310.73 Q 416.05 310.73 416.05 302.59 L 416.05 302.59 L 416.05 289.04 L 412.41 289.04 L 412.41 285.94 L 416.28 285.71 L 416.73 278.83 L 420.15 278.83 L 420.15 285.71 L 426.81 285.71 L 426.81 289.04 L 420.15 289.04 L 420.15 302.72 Q 420.15 307.4 423.93 307.4 L 423.93 307.4 Q 425.19 307.4 426.72 306.73 L 426.72 306.73 L 427.53 309.83 Q 424.74 310.73 422.98 310.73 L 422.98 310.73 Z" stroke-linecap="round" />
</g>
</svg>