
<svg xmlns="http://www.w3.org/2000/svg" width="200" height="128">
    <path d="M41.033 75.391c.281-1.121.552-2.175.807-3.232.057-.236.194-.3.41-.342 2.574-.553 5.145-1.118 7.716-1.679A1.756 1.756 0 0 0 51.53 68.2v-8.464a1.739 1.739 0 0 0-1.5-1.866c-2.586-.563-5.172-1.124-7.755-1.7-.149-.033-.359-.158-.393-.282-.3-1.074-.566-2.157-.852-3.28h9.524a6.082 6.082 0 0 1 6.157 5.14 6.009 6.009 0 0 1 .075 1.057q.007 5.189 0 10.378a6.106 6.106 0 0 1-6.226 6.21h-9.527zM35.742 52.629c-.272 1.085-.54 2.126-.79 3.171a.463.463 0 0 1-.431.379c-2.588.555-5.173 1.124-7.759 1.686a1.788 1.788 0 0 0-1.534 1.856q-.017 4.275 0 8.55a1.794 1.794 0 0 0 1.572 1.867q3.879.84 7.755 1.7a.518.518 0 0 1 .345.277c.3 1.075.565 2.159.846 3.253a1.839 1.839 0 0 1-.2.022c-3.219 0-6.439.043-9.657-.011A6.057 6.057 0 0 1 20 69.321V58.686a6.048 6.048 0 0 1 5.919-6.068c3.2-.046 6.41-.011 9.614-.011.059 0 .115.012.209.022zM76.17 71.71c-.681 0-1.327.011-1.972-.013-.082 0-.2-.175-.23-.289a137.587 137.587 0 0 1-.908-3.269.426.426 0 0 0-.493-.383q-3.421.018-6.844 0c-.326 0-.441.126-.518.412-.316 1.174-.65 2.342-.982 3.528h-2.064a1.406 1.406 0 0 1 0-.332 81.06 81.06 0 0 1 4.366-13.015c.308-.683.665-1.344.988-2.02a.468.468 0 0 1 .5-.3 40.18 40.18 0 0 0 2.168 0 .594.594 0 0 1 .622.377 43.95 43.95 0 0 1 2.93 7c.85 2.636 1.587 5.309 2.372 7.966.027.09.036.186.065.338zm-3.915-6.044a.878.878 0 0 0-.022-.182c-.9-2.317-1.8-4.635-2.717-6.945-.061-.155-.251-.26-.382-.387-.127.13-.31.237-.372.393-.894 2.244-1.771 4.495-2.65 6.745a3.084 3.084 0 0 0-.093.376zM88.839 56.037V60.3c.617-.084 1.2-.182 1.782-.238a7.28 7.28 0 0 1 2.9.192 3.026 3.026 0 0 1 2.281 2.938c.038 1.812.046 3.627 0 5.439a3.3 3.3 0 0 1-3.275 3.262 30.41 30.41 0 0 1-3.046-.074c-.777-.028-1.553-.085-2.33-.091-.321 0-.406-.1-.406-.416q.014-7.437 0-14.876c0-.281.061-.413.375-.4.554.017 1.105.001 1.719.001zm0 13.679c1.094.055 2.138.181 3.175.14 1.381-.054 1.757-.52 1.757-1.894 0-1.445.008-2.889 0-4.334-.008-1.014-.371-1.47-1.385-1.49s-2.021.137-3.033.192c-.456.024-.525.256-.52.658.02 1.642.008 3.285.008 4.928zM108.882 56.063h2.018v4.228c.639-.085 1.22-.179 1.8-.235a6.887 6.887 0 0 1 3.1.268 2.873 2.873 0 0 1 2.04 2.71c.072 1.823.081 3.653.022 5.477a3.284 3.284 0 0 1-3.282 3.381 24.979 24.979 0 0 1-2.707-.05c-.805-.03-1.609-.086-2.414-.127-.182-.009-.364 0-.58 0zM110.9 69.6a9.153 9.153 0 0 0 3.748.177 1.256 1.256 0 0 0 1.17-1.422q.024-2.38 0-4.762c-.008-.991-.372-1.35-1.373-1.476a10.749 10.749 0 0 0-3.078.223c-.373.061-.481.2-.478.576.017 2.069.008 4.138.008 6.207zM177.578 60.215v-4.149h2.022v15.587c-.021.013-.044.041-.068.042-1.482.093-2.963.219-4.446.261a4.424 4.424 0 0 1-2.7-.726 3.39 3.39 0 0 1-1.4-2.948 137.445 137.445 0 0 1 0-4.762 3.32 3.32 0 0 1 3.57-3.488c.9-.029 1.806.1 2.709.157zm0 5.793c0-1.09.008-2.18-.01-3.27 0-.144-.122-.394-.22-.412a7.731 7.731 0 0 0-3.278-.133 1.074 1.074 0 0 0-.994 1.216q-.029 2.484 0 4.967a1.273 1.273 0 0 0 1.211 1.426 8.371 8.371 0 0 0 3.034-.123c.249-.042.26-.2.259-.4-.007-1.091-.005-2.179-.005-3.271zM106.347 71.652c-1.781.108-3.515.247-5.252.3a4.535 4.535 0 0 1-1.695-.328 3.171 3.171 0 0 1-2.086-3.071 3.078 3.078 0 0 1 1.736-3.069 7.918 7.918 0 0 1 4.269-.66c.308.019.616.058 1.039.1a13.342 13.342 0 0 0-.178-2.03c-.062-.267-.451-.541-.751-.654a4.7 4.7 0 0 0-2.436-.066c-.737.119-1.465.3-2.244.458l-.492-1.973a10.321 10.321 0 0 1 5.9-.37 2.98 2.98 0 0 1 2.2 2.911c.028 2.764.012 5.529.013 8.293a1.066 1.066 0 0 1-.023.159zm-2.028-3.31c0-.311-.017-.623 0-.933.02-.29-.1-.42-.377-.433A17.132 17.132 0 0 0 102 66.9a7.719 7.719 0 0 0-1.856.366 1.088 1.088 0 0 0-.758 1.235 1.366 1.366 0 0 0 1.561 1.368c.986-.006 1.971-.135 2.957-.195.358-.022.446-.2.418-.524-.022-.268-.003-.539-.003-.808zM120.318 60.659a10.893 10.893 0 0 1 5.624-.463 3.033 3.033 0 0 1 2.475 3.046c.033 2.735.01 5.471.009 8.207a1.506 1.506 0 0 1-.032.216.892.892 0 0 1-.166.044c-1.455.088-2.909.211-4.365.242a7.339 7.339 0 0 1-2.136-.243 3.423 3.423 0 0 1-.254-6.4 8.58 8.58 0 0 1 3.926-.48c.308.024.615.056.94.086 0-.616.031-1.208-.01-1.8-.035-.521-.417-.78-.886-.909a6.411 6.411 0 0 0-2.9.048c-.567.1-1.125.254-1.724.392zm6.056 7.681c0-.339.02-.681-.011-1.017-.011-.115-.139-.3-.236-.314a7.526 7.526 0 0 0-3.769.182 1.2 1.2 0 0 0-.922 1.269 1.27 1.27 0 0 0 1.119 1.34 10.388 10.388 0 0 0 3.622-.183c.08-.013.18-.192.188-.3.025-.325.009-.651.009-.977zM143.462 58.789a12.411 12.411 0 0 0-6.7-.419 1.692 1.692 0 0 0-1.489 1.906v7.485a1.691 1.691 0 0 0 1.448 1.856 12.216 12.216 0 0 0 6.292-.275c.119-.035.236-.076.393-.128l.516 2.036c-.61.156-1.2.346-1.8.454a14.628 14.628 0 0 1-5.821-.051 3.781 3.781 0 0 1-3.109-3.853c0-2.495.047-4.992-.016-7.485a3.888 3.888 0 0 1 3.173-3.986 14.558 14.558 0 0 1 7.382.373c.066.02.129.054.237.1zM149.943 65.99c0-.821-.005-1.643 0-2.465a3.576 3.576 0 0 1 3.455-3.51 13.954 13.954 0 0 1 2.5.087 3.506 3.506 0 0 1 2.886 3.5q.009 2.38 0 4.762a3.6 3.6 0 0 1-3.588 3.606 17.128 17.128 0 0 1-2.163-.055 3.54 3.54 0 0 1-3.089-3.54c-.003-.797-.001-1.591-.001-2.385zm2.057-.03c0 .778-.011 1.557 0 2.336a1.553 1.553 0 0 0 1.625 1.59h1.444a1.556 1.556 0 0 0 1.654-1.607q.033-2.292 0-4.587a1.538 1.538 0 0 0-1.48-1.611 10.488 10.488 0 0 0-1.781 0A1.539 1.539 0 0 0 152 63.709c-.011.75 0 1.5 0 2.251zM160.521 60.28h2.079v.509c0 2.453 0 4.905.012 7.357.006 1.146.36 1.559 1.506 1.7a8.56 8.56 0 0 0 3.038-.245v-9.309h2.056v11.377a2.273 2.273 0 0 1-.238.043c-1.2.083-2.4.169-3.6.242a6.289 6.289 0 0 1-2.717-.344 3.131 3.131 0 0 1-2.077-2.762 12.529 12.529 0 0 1-.062-1.357c-.006-2.225 0-4.451 0-6.677zM147.941 71.686h-1.99V56.047h1.99zM77.74 56.063h1.993v15.624H77.74zM82.245 71.714V60.3h2.043c.008.153.02.292.02.43 0 3.5-.005 7 .009 10.492 0 .389-.1.524-.495.5-.522-.033-1.039-.008-1.577-.008zM83.253 58.809a1.341 1.341 0 0 1-1.367-1.409 1.377 1.377 0 0 1 1.385-1.365 1.4 1.4 0 0 1 1.4 1.4 1.361 1.361 0 0 1-1.418 1.374z" fill="#ff6a00"/>
    <path d="M34.912 64.4v-.784h6.958v.784z" fill="#ff6a00"/>
</svg>
