
<svg xmlns="http://www.w3.org/2000/svg" width="200" height="128">
    <path d="M52.644 62.284c3.793 4.357-.994 8.289-.994 8.289s9.626-4.972 5.2-11.191c-4.128-5.809-7.3-8.69 9.846-18.633 0 0-26.908 6.722-14.056 21.535" fill="#f8971d"/>
    <path d="M56.854 24.7s8.165 8.165-7.747 20.732c-12.76 10.077-2.91 15.826-.007 22.39-7.447-6.722-12.913-12.64-9.246-18.151 5.38-8.081 20.3-12 17-24.974" fill="#f8971d"/>
    <path fill="#58839f" fill-rule="evenodd" d="M172.236 73.411h.905v-3.483h1.191v-.713h-3.331v.713h1.235v3.483zM179.142 73.411H180v-4.196h-1.289l-1.047 2.859-1.139-2.859h-1.239v4.196h.808v-3.193h.046l1.193 3.193h.618l1.191-3.193v3.193z"/>
    <path d="M97.242 90.872q0 8.265-5.577 12.428l-2.691-2.281a11.027 11.027 0 0 0 2.384-4.975 28.622 28.622 0 0 0 .405-5.474V60.186h5.479zM121.841 94.425h-4.056l-.407-2.739a11.838 11.838 0 0 1-7.812 3.245q-7.6 0-7.6-7a7.248 7.248 0 0 1 3.093-6.238q3.348-2.388 9.788-2.384h1.826v-2.284q0-4.515-5.227-4.515a21.625 21.625 0 0 0-7.4 1.471l-.759-3.194a23.524 23.524 0 0 1 9.585-2.081q8.978 0 8.976 7.659zm-5.172-5.833v-5.986h-2.183q-7.352 0-7.351 4.565 0 3.954 3.9 3.957a8.833 8.833 0 0 0 5.63-2.536M147.206 69.165a99.529 99.529 0 0 1-7.813 25.261h-6.44l-7.764-25.261h5.63l4.819 15.518 1.064 4.666a94.478 94.478 0 0 0 5.023-20.184zM168.61 94.425h-4.061l-.4-2.739a11.852 11.852 0 0 1-7.812 3.245q-7.608 0-7.609-7a7.251 7.251 0 0 1 3.094-6.238q3.347-2.388 9.791-2.384h1.824v-2.284q0-4.515-5.222-4.515a21.646 21.646 0 0 0-7.407 1.471l-.762-3.194a23.548 23.548 0 0 1 9.588-2.081q8.979 0 8.979 7.659zm-5.176-5.833v-5.986h-2.181q-7.357 0-7.355 4.565 0 3.954 3.905 3.957a8.827 8.827 0 0 0 5.631-2.536M38.671 85.488s-3 1.742 2.138 2.336a45.045 45.045 0 0 0 16.278-.69 28.2 28.2 0 0 0 4.326 2.105c-15.392 6.6-34.83-.377-22.742-3.751M36.793 76.881s-3.372 2.492 1.776 3.024a63.639 63.639 0 0 0 21-1.009 9.311 9.311 0 0 0 3.235 1.972c-18.6 5.443-39.327.431-26.012-3.987" fill="#58839f"/>
    <path d="M73 91.853s2.222 1.828-2.453 3.249c-8.879 2.685-36.966 3.5-44.765.108-2.808-1.224 2.454-2.912 4.106-3.269a10.975 10.975 0 0 1 2.713-.307c-3.119-2.2-20.164 4.315-8.657 6.177C55.314 102.9 81.131 95.524 73 91.853M40.115 67.965s-14.286 3.39-5.057 4.625c3.894.52 11.662.4 18.9-.206 5.914-.5 11.85-1.558 11.85-1.558a25.1 25.1 0 0 0-3.6 1.92c-14.508 3.819-42.53 2.042-34.461-1.858a27.029 27.029 0 0 1 12.368-2.923M65.745 82.286c14.746-7.662 7.93-15.031 3.168-14.034a11.294 11.294 0 0 0-1.685.453 2.7 2.7 0 0 1 1.259-.973c9.416-3.308 16.658 9.761-3.039 14.94a1.289 1.289 0 0 0 .3-.386" fill="#58839f"/>
    <path d="M41.566 103.057c14.155.9 35.895-.506 36.41-7.2 0 0-.991 2.536-11.7 4.557a116.361 116.361 0 0 1-35.825.548s1.809 1.5 11.112 2.1" fill="#58839f"/>
</svg>

