<svg width="123px" height="24px" viewBox="0 0 123 24" version="1.1" xmlns="http://www.w3.org/2000/svg" xmlns:xlink="http://www.w3.org/1999/xlink">
    <title>编组</title>
    <g id="控件" stroke="none" stroke-width="1" fill="none" fill-rule="evenodd">
        <g id="顶部导航/常态" transform="translate(-24.000000, -14.000000)">
            <g id="编组" transform="translate(24.000000, 14.000000)">
                <g id="Holoinsight" transform="translate(32.000000, 5.408000)" fill="#FBFBFB" fill-rule="nonzero">
                    <polygon id="路径" points="9.888 1.488 9.888 12.592 6.704 12.592 6.704 8.032 3.184 8.032 3.184 12.592 0 12.592 0 1.488 3.184 1.488 3.184 5.376 6.704 5.376 6.704 1.488"></polygon>
                    <path d="M15.904,12.752 C15.2106667,12.752 14.592,12.6853333 14.048,12.552 C13.504,12.4186667 13.0426667,12.184 12.664,11.848 C12.2853333,11.512 11.9946667,11.0533333 11.792,10.472 C11.5893333,9.89066667 11.488,9.15733333 11.488,8.272 C11.488,7.38666667 11.5893333,6.65333333 11.792,6.072 C11.9946667,5.49066667 12.2853333,5.032 12.664,4.696 C13.0426667,4.36 13.504,4.12533333 14.048,3.992 C14.592,3.85866667 15.2106667,3.792 15.904,3.792 C16.5973333,3.792 17.216,3.85866667 17.76,3.992 C18.304,4.12533333 18.7653333,4.36 19.144,4.696 C19.5226667,5.032 19.8133333,5.49066667 20.016,6.072 C20.2186667,6.65333333 20.32,7.38666667 20.32,8.272 C20.32,9.15733333 20.2186667,9.89066667 20.016,10.472 C19.8133333,11.0533333 19.5226667,11.512 19.144,11.848 C18.7653333,12.184 18.304,12.4186667 17.76,12.552 C17.216,12.6853333 16.5973333,12.752 15.904,12.752 Z M15.904,10.544 C16.16,10.544 16.3733333,10.5093333 16.544,10.44 C16.7146667,10.3706667 16.8533333,10.248 16.96,10.072 C17.0666667,9.896 17.1413333,9.66133333 17.184,9.368 C17.2266667,9.07466667 17.248,8.70933333 17.248,8.272 C17.248,7.83466667 17.2266667,7.46666667 17.184,7.168 C17.1413333,6.86933333 17.0666667,6.632 16.96,6.456 C16.8533333,6.28 16.7146667,6.15466667 16.544,6.08 C16.3733333,6.00533333 16.16,5.968 15.904,5.968 C15.648,5.968 15.4346667,6.00533333 15.264,6.08 C15.0933333,6.15466667 14.9546667,6.28 14.848,6.456 C14.7413333,6.632 14.6666667,6.86933333 14.624,7.168 C14.5813333,7.46666667 14.56,7.83466667 14.56,8.272 C14.56,8.70933333 14.5813333,9.07466667 14.624,9.368 C14.6666667,9.66133333 14.7413333,9.896 14.848,10.072 C14.9546667,10.248 15.0933333,10.3706667 15.264,10.44 C15.4346667,10.5093333 15.648,10.544 15.904,10.544 Z" id="形状"></path>
                    <path d="M24.736,12.688 C24.1386667,12.688 23.648,12.6373333 23.264,12.536 C22.88,12.4346667 22.5786667,12.2773333 22.36,12.064 C22.1413333,11.8506667 21.9893333,11.584 21.904,11.264 C21.8186667,10.944 21.776,10.5653333 21.776,10.128 L21.776,0.432 L24.816,0.432 L24.816,9.408 C24.816,9.77066667 24.864,10.016 24.96,10.144 C25.056,10.272 25.2266667,10.336 25.472,10.336 C25.5253333,10.336 25.5733333,10.336 25.616,10.336 C25.6586667,10.336 25.7226667,10.3253333 25.808,10.304 L25.808,12.592 C25.456,12.656 25.0986667,12.688 24.736,12.688 Z" id="路径"></path>
                    <path d="M30.896,12.752 C30.2026667,12.752 29.584,12.6853333 29.04,12.552 C28.496,12.4186667 28.0346667,12.184 27.656,11.848 C27.2773333,11.512 26.9866667,11.0533333 26.784,10.472 C26.5813333,9.89066667 26.48,9.15733333 26.48,8.272 C26.48,7.38666667 26.5813333,6.65333333 26.784,6.072 C26.9866667,5.49066667 27.2773333,5.032 27.656,4.696 C28.0346667,4.36 28.496,4.12533333 29.04,3.992 C29.584,3.85866667 30.2026667,3.792 30.896,3.792 C31.5893333,3.792 32.208,3.85866667 32.752,3.992 C33.296,4.12533333 33.7573333,4.36 34.136,4.696 C34.5146667,5.032 34.8053333,5.49066667 35.008,6.072 C35.2106667,6.65333333 35.312,7.38666667 35.312,8.272 C35.312,9.15733333 35.2106667,9.89066667 35.008,10.472 C34.8053333,11.0533333 34.5146667,11.512 34.136,11.848 C33.7573333,12.184 33.296,12.4186667 32.752,12.552 C32.208,12.6853333 31.5893333,12.752 30.896,12.752 Z M30.896,10.544 C31.152,10.544 31.3653333,10.5093333 31.536,10.44 C31.7066667,10.3706667 31.8453333,10.248 31.952,10.072 C32.0586667,9.896 32.1333333,9.66133333 32.176,9.368 C32.2186667,9.07466667 32.24,8.70933333 32.24,8.272 C32.24,7.83466667 32.2186667,7.46666667 32.176,7.168 C32.1333333,6.86933333 32.0586667,6.632 31.952,6.456 C31.8453333,6.28 31.7066667,6.15466667 31.536,6.08 C31.3653333,6.00533333 31.152,5.968 30.896,5.968 C30.64,5.968 30.4266667,6.00533333 30.256,6.08 C30.0853333,6.15466667 29.9466667,6.28 29.84,6.456 C29.7333333,6.632 29.6586667,6.86933333 29.616,7.168 C29.5733333,7.46666667 29.552,7.83466667 29.552,8.272 C29.552,8.70933333 29.5733333,9.07466667 29.616,9.368 C29.6586667,9.66133333 29.7333333,9.896 29.84,10.072 C29.9466667,10.248 30.0853333,10.3706667 30.256,10.44 C30.4266667,10.5093333 30.64,10.544 30.896,10.544 Z" id="形状"></path>
                    <path d="M38.256,3.056 C37.904,3.056 37.6213333,3.04 37.408,3.008 C37.1946667,2.976 37.0293333,2.90933333 36.912,2.808 C36.7946667,2.70666667 36.7146667,2.552 36.672,2.344 C36.6293333,2.136 36.608,1.856 36.608,1.504 C36.608,1.152 36.6293333,0.877333333 36.672,0.68 C36.7146667,0.482666667 36.7946667,0.333333333 36.912,0.232 C37.0293333,0.130666667 37.1946667,0.0666666667 37.408,0.04 C37.6213333,0.0133333333 37.904,0 38.256,0 C38.608,0 38.8906667,0.0133333333 39.104,0.04 C39.3173333,0.0666666667 39.4853333,0.130666667 39.608,0.232 C39.7306667,0.333333333 39.8106667,0.482666667 39.848,0.68 C39.8853333,0.877333333 39.904,1.152 39.904,1.504 C39.904,1.856 39.8853333,2.136 39.848,2.344 C39.8106667,2.552 39.7306667,2.70666667 39.608,2.808 C39.4853333,2.90933333 39.3173333,2.976 39.104,3.008 C38.8906667,3.04 38.608,3.056 38.256,3.056 Z M36.736,3.952 L39.776,3.952 L39.776,12.592 L36.736,12.592 L36.736,3.952 Z" id="形状"></path>
                    <path d="M47.312,3.792 C48.3253333,3.792 49.0506667,4.024 49.488,4.488 C49.9253333,4.952 50.144,5.70666667 50.144,6.752 L50.144,12.592 L47.104,12.592 L47.104,7.44 C47.104,7.17333333 47.0853333,6.95733333 47.048,6.792 C47.0106667,6.62666667 46.944,6.50133333 46.848,6.416 C46.752,6.33066667 46.624,6.272 46.464,6.24 C46.304,6.208 46.1066667,6.192 45.872,6.192 C45.488,6.192 45.2026667,6.256 45.016,6.384 C44.8293333,6.512 44.704,6.68266667 44.64,6.896 L44.64,12.592 L41.6,12.592 L41.6,3.952 L44.64,3.952 L44.64,4.832 C44.8533333,4.53333333 45.176,4.28533333 45.608,4.088 C46.04,3.89066667 46.608,3.792 47.312,3.792 Z" id="路径"></path>
                    <path d="M54.656,12.688 C54.3786667,12.688 54.1173333,12.6826667 53.872,12.672 C53.6266667,12.6613333 53.3866667,12.6453333 53.152,12.624 C52.9173333,12.6026667 52.6853333,12.576 52.456,12.544 C52.2266667,12.512 51.984,12.4693333 51.728,12.416 L51.728,9.92 C52.24,10.0693333 52.7226667,10.1813333 53.176,10.256 C53.6293333,10.3306667 54.0533333,10.368 54.448,10.368 C54.8213333,10.368 55.08,10.3386667 55.224,10.28 C55.368,10.2213333 55.44,10.0746667 55.44,9.84 C55.44,9.72266667 55.4213333,9.62666667 55.384,9.552 C55.3466667,9.47733333 55.2746667,9.41066667 55.168,9.352 C55.0613333,9.29333333 54.9146667,9.23466667 54.728,9.176 C54.5413333,9.11733333 54.2986667,9.05066667 54,8.976 C53.552,8.85866667 53.184,8.736 52.896,8.608 C52.608,8.48 52.384,8.32266667 52.224,8.136 C52.064,7.94933333 51.952,7.73066667 51.888,7.48 C51.824,7.22933333 51.792,6.91733333 51.792,6.544 C51.792,6.096 51.8506667,5.69866667 51.968,5.352 C52.0853333,5.00533333 52.288,4.71733333 52.576,4.488 C52.864,4.25866667 53.248,4.08533333 53.728,3.968 C54.208,3.85066667 54.8053333,3.792 55.52,3.792 C56.0426667,3.792 56.5306667,3.81866667 56.984,3.872 C57.4373333,3.92533333 57.792,3.99466667 58.048,4.08 L57.952,6.336 C57.8346667,6.304 57.6853333,6.26933333 57.504,6.232 C57.3226667,6.19466667 57.128,6.16 56.92,6.128 C56.712,6.096 56.496,6.06933333 56.272,6.048 C56.048,6.02666667 55.84,6.016 55.648,6.016 C55.424,6.016 55.2453333,6.024 55.112,6.04 C54.9786667,6.056 54.8773333,6.08266667 54.808,6.12 C54.7386667,6.15733333 54.6933333,6.20533333 54.672,6.264 C54.6506667,6.32266667 54.64,6.38933333 54.64,6.464 C54.64,6.53866667 54.6586667,6.6 54.696,6.648 C54.7333333,6.696 54.808,6.74133333 54.92,6.784 C55.032,6.82666667 55.192,6.87466667 55.4,6.928 C55.608,6.98133333 55.8826667,7.056 56.224,7.152 C56.672,7.28 57.0346667,7.416 57.312,7.56 C57.5893333,7.704 57.8053333,7.87466667 57.96,8.072 C58.1146667,8.26933333 58.2186667,8.50666667 58.272,8.784 C58.3253333,9.06133333 58.352,9.392 58.352,9.776 C58.352,10.3413333 58.2693333,10.8106667 58.104,11.184 C57.9386667,11.5573333 57.696,11.856 57.376,12.08 C57.056,12.304 56.6666667,12.4613333 56.208,12.552 C55.7493333,12.6426667 55.232,12.688 54.656,12.688 Z" id="路径"></path>
                    <path d="M61.424,3.056 C61.072,3.056 60.7893333,3.04 60.576,3.008 C60.3626667,2.976 60.1973333,2.90933333 60.08,2.808 C59.9626667,2.70666667 59.8826667,2.552 59.84,2.344 C59.7973333,2.136 59.776,1.856 59.776,1.504 C59.776,1.152 59.7973333,0.877333333 59.84,0.68 C59.8826667,0.482666667 59.9626667,0.333333333 60.08,0.232 C60.1973333,0.130666667 60.3626667,0.0666666667 60.576,0.04 C60.7893333,0.0133333333 61.072,0 61.424,0 C61.776,0 62.0586667,0.0133333333 62.272,0.04 C62.4853333,0.0666666667 62.6533333,0.130666667 62.776,0.232 C62.8986667,0.333333333 62.9786667,0.482666667 63.016,0.68 C63.0533333,0.877333333 63.072,1.152 63.072,1.504 C63.072,1.856 63.0533333,2.136 63.016,2.344 C62.9786667,2.552 62.8986667,2.70666667 62.776,2.808 C62.6533333,2.90933333 62.4853333,2.976 62.272,3.008 C62.0586667,3.04 61.776,3.056 61.424,3.056 Z M59.904,3.952 L62.944,3.952 L62.944,12.592 L59.904,12.592 L59.904,3.952 Z" id="形状"></path>
                    <path d="M73.28,3.952 L73.28,11.872 C73.28,12.4693333 73.2,13.008 73.04,13.488 C72.88,13.968 72.6026667,14.3786667 72.208,14.72 C71.8133333,15.0613333 71.28,15.3253333 70.608,15.512 C69.936,15.6986667 69.088,15.792 68.064,15.792 C67.8613333,15.792 67.6426667,15.7866667 67.408,15.776 C67.1733333,15.7653333 66.936,15.752 66.696,15.736 C66.456,15.72 66.2186667,15.6986667 65.984,15.672 C65.7493333,15.6453333 65.5306667,15.616 65.328,15.584 L65.328,13.232 C65.6693333,13.3173333 66.064,13.3893333 66.512,13.448 C66.96,13.5066667 67.3706667,13.536 67.744,13.536 C68.2026667,13.536 68.592,13.512 68.912,13.464 C69.232,13.416 69.4933333,13.328 69.696,13.2 C69.8986667,13.072 70.0453333,12.896 70.136,12.672 C70.2266667,12.448 70.272,12.1653333 70.272,11.824 L70.272,11.6 C70.1013333,11.9093333 69.8293333,12.152 69.456,12.328 C69.0826667,12.504 68.5333333,12.592 67.808,12.592 C67.1253333,12.592 66.5626667,12.4853333 66.12,12.272 C65.6773333,12.0586667 65.3253333,11.76 65.064,11.376 C64.8026667,10.992 64.6213333,10.5306667 64.52,9.992 C64.4186667,9.45333333 64.368,8.85333333 64.368,8.192 C64.368,7.60533333 64.4186667,7.04533333 64.52,6.512 C64.6213333,5.97866667 64.8026667,5.50933333 65.064,5.104 C65.3253333,4.69866667 65.6773333,4.37866667 66.12,4.144 C66.5626667,3.90933333 67.1253333,3.792 67.808,3.792 C68.544,3.792 69.096,3.864 69.464,4.008 C69.832,4.152 70.1013333,4.384 70.272,4.704 L70.272,3.952 L73.28,3.952 Z M68.864,10.496 C69.2266667,10.496 69.512,10.4453333 69.72,10.344 C69.928,10.2426667 70.0826667,10.0933333 70.184,9.896 C70.2853333,9.69866667 70.3493333,9.456 70.376,9.168 C70.4026667,8.88 70.416,8.55466667 70.416,8.192 C70.416,7.84 70.4026667,7.528 70.376,7.256 C70.3493333,6.984 70.2853333,6.752 70.184,6.56 C70.0826667,6.368 69.928,6.22133333 69.72,6.12 C69.512,6.01866667 69.2266667,5.968 68.864,5.968 C68.5546667,5.968 68.3066667,6.02933333 68.12,6.152 C67.9333333,6.27466667 67.7893333,6.43733333 67.688,6.64 C67.5866667,6.84266667 67.52,7.08 67.488,7.352 C67.456,7.624 67.44,7.904 67.44,8.192 C67.44,8.50133333 67.456,8.79733333 67.488,9.08 C67.52,9.36266667 67.5866667,9.608 67.688,9.816 C67.7893333,10.024 67.9333333,10.1893333 68.12,10.312 C68.3066667,10.4346667 68.5546667,10.496 68.864,10.496 Z" id="形状"></path>
                    <path d="M80.896,3.792 C81.9093333,3.792 82.6346667,4.024 83.072,4.488 C83.5093333,4.952 83.728,5.70666667 83.728,6.752 L83.728,12.592 L80.688,12.592 L80.688,7.44 C80.688,7.17333333 80.6693333,6.95733333 80.632,6.792 C80.5946667,6.62666667 80.528,6.50133333 80.432,6.416 C80.336,6.33066667 80.208,6.272 80.048,6.24 C79.888,6.208 79.6906667,6.192 79.456,6.192 C79.0613333,6.192 78.7706667,6.26666667 78.584,6.416 C78.3973333,6.56533333 78.2773333,6.75733333 78.224,6.992 L78.224,12.592 L75.184,12.592 L75.184,0.432 L78.224,0.432 L78.224,4.88 C78.4266667,4.57066667 78.7413333,4.312 79.168,4.104 C79.5946667,3.896 80.1706667,3.792 80.896,3.792 Z" id="路径"></path>
                    <path d="M88.88,6.288 L88.88,9.456 C88.88,9.82933333 88.936,10.0746667 89.048,10.192 C89.16,10.3093333 89.3706667,10.368 89.68,10.368 C89.7653333,10.368 89.8506667,10.368 89.936,10.368 C90.0213333,10.368 90.1013333,10.3573333 90.176,10.336 L90.176,12.608 C90.0053333,12.6293333 89.8053333,12.648 89.576,12.664 C89.3466667,12.68 89.136,12.688 88.944,12.688 C88.368,12.688 87.8826667,12.64 87.488,12.544 C87.0933333,12.448 86.7733333,12.288 86.528,12.064 C86.2826667,11.84 86.1066667,11.5386667 86,11.16 C85.8933333,10.7813333 85.84,10.3093333 85.84,9.744 L85.84,6.288 L84.816,6.288 L84.816,3.952 L85.84,3.952 L85.84,1.904 L88.88,1.904 L88.88,3.952 L90.416,3.952 L90.416,6.288 L88.88,6.288 Z" id="路径"></path>
                </g>
                <path d="M5.1277704,6.99666078e-16 L18.8722296,2.07168062e-16 C20.6552671,-1.2037061e-16 21.3018396,0.185651222 21.9536914,0.534265408 C22.6055433,0.882879593 23.1171204,1.39445674 23.4657346,2.04630859 C23.8143488,2.69816044 24,3.34473292 24,5.1277704 L24,18.8722296 C24,20.6552671 23.8143488,21.3018396 23.4657346,21.9536914 C23.1171204,22.6055433 22.6055433,23.1171204 21.9536914,23.4657346 C21.3018396,23.8143488 20.6552671,24 18.8722296,24 L5.1277704,24 C3.34473292,24 2.69816044,23.8143488 2.04630859,23.4657346 C1.39445674,23.1171204 0.882879593,22.6055433 0.534265408,21.9536914 C0.185651222,21.3018396 -4.46649677e-16,20.6552671 7.68722098e-16,18.8722296 L1.38112041e-16,5.1277704 C-8.02470732e-17,3.34473292 0.185651222,2.69816044 0.534265408,2.04630859 C0.882879593,1.39445674 1.39445674,0.882879593 2.04630859,0.534265408 C2.69816044,0.185651222 3.34473292,-4.0652614e-16 5.1277704,6.99666078e-16 Z" id="矩形" fill="#1677FF"></path>
                <g id="H" transform="translate(7.000000, 6.000000)" fill="#FFFFFF" fill-rule="nonzero">
                    <polygon id="路径" points="10.386 0 10.386 12.492 7.668 12.492 7.668 6.966 2.736 6.966 2.736 12.492 0 12.492 0 0 2.736 0 2.736 4.68 7.668 4.68 7.668 0"></polygon>
                </g>
            </g>
        </g>
    </g>
</svg>
