
<svg xmlns="http://www.w3.org/2000/svg" width="200" height="128">
    <g fill="#fff">
        <path d="M124.327 28.128a5.89 5.89 0 0 0-1.513.185v.074h.072a12.5 12.5 0 0 0 1.181 1.515c.3.59.556 1.179.851 1.769.036-.035.072-.074.072-.074a2.071 2.071 0 0 0 .778-1.845 8.417 8.417 0 0 1-.444-.775c-.221-.369-.7-.553-1-.849" fill-rule="evenodd"/>
        <path d="M65.6 100.99h-5.113q-.27-12.945-1.493-24.348h-.045l-7.785 24.348h-3.893l-7.738-24.348h-.046q-.861 10.952-1.087 24.348h-4.66Q34.191 84.7 36 70.44h6.337l7.377 22.447h.046l7.424-22.447h6.064q1.992 16.7 2.353 30.55M87.777 78.45q-3.123 16.95-8.237 24.63-3.986 5.92-8.735 5.92a8.6 8.6 0 0 1-3.122-.76v-2.724a14.737 14.737 0 0 0 2.127.136 5.142 5.142 0 0 0 3.576-1.224 4.462 4.462 0 0 0 1.628-3.348 22.293 22.293 0 0 0-1.267-5.2l-5.611-17.43h5.023l4.027 13.033q1.357 4.438 1.132 6.2a85.161 85.161 0 0 0 4.617-19.233zM155.844 100.99h-14.527V70.44h4.888v26.792h9.639v3.758z"/>
        <path d="M119.322 94.879q-1.856-2.988-1.857-9.594 0-11.54 7.015-11.542a5.892 5.892 0 0 1 5.387 2.76q1.854 2.988 1.856 9.5 0 11.633-7.016 11.633a5.881 5.881 0 0 1-5.385-2.762m18.194 6.848l-5.616-2.764a10.512 10.512 0 0 0 1.405-1.365q3.576-4.2 3.577-12.444 0-15.16-11.9-15.163-5.84 0-9.1 3.849-3.578 4.209-3.576 12.4 0 8.056 3.168 11.813 2.9 3.393 8.736 3.394a14.082 14.082 0 0 0 4-.537l7.313 4.256 1.994-3.434z" fill-rule="evenodd"/>
        <path d="M110.176 92.522a8.109 8.109 0 0 1-2.85 6.382 11.224 11.224 0 0 1-7.645 2.488 15.331 15.331 0 0 1-8.69-2.853l1.309-2.624a14.889 14.889 0 0 0 6.56 1.809 6.887 6.887 0 0 0 4.322-1.218 4.163 4.163 0 0 0 1.662-3.393c0-1.814-1.265-3.365-3.586-4.665-2.143-1.176-6.425-3.631-6.425-3.631a7.318 7.318 0 0 1-3.484-6.5 7.6 7.6 0 0 1 2.6-6 9.815 9.815 0 0 1 6.722-2.287 13.909 13.909 0 0 1 7.737 2.265l-1.179 2.622a14.985 14.985 0 0 0-5.88-1.266 5.241 5.241 0 0 0-3.619 1.134 3.784 3.784 0 0 0-1.37 2.895c0 1.809 1.292 3.378 3.679 4.7 2.17 1.177 6.557 3.679 6.557 3.679 2.387 1.69 3.576 3.491 3.576 6.458"/>
        <path d="M161.978 60.206a17.059 17.059 0 0 0-7.161 1.034c-.554.221-1.439.221-1.514.923.3.294.333.774.593 1.182a8.6 8.6 0 0 0 1.918 2.251c.775.591 1.55 1.179 2.364 1.7 1.438.89 3.063 1.4 4.464 2.291.814.516 1.623 1.18 2.438 1.735.405.3.661.775 1.18.958v-.112c-.26-.331-.333-.811-.59-1.182-.368-.367-.738-.7-1.108-1.068a17.567 17.567 0 0 0-3.838-3.727c-1.182-.814-3.767-1.922-4.245-3.284l-.075-.075a14.873 14.873 0 0 0 2.548-.6c1.253-.331 2.4-.256 3.69-.587.591-.149 1.182-.335 1.775-.516V60.8c-.668-.663-1.146-1.55-1.847-2.177a49.436 49.436 0 0 0-6.091-4.54c-1.146-.739-2.623-1.216-3.841-1.846-.441-.221-1.178-.331-1.438-.7a14.8 14.8 0 0 1-1.514-2.842c-1.07-2.028-2.105-4.279-3.026-6.423a39.458 39.458 0 0 0-1.883-4.207c-3.8-6.276-7.936-10.076-14.285-13.8a17.682 17.682 0 0 0-4.724-1.514c-.924-.039-1.846-.111-2.769-.147a14.819 14.819 0 0 1-1.7-1.294c-2.105-1.328-7.528-4.206-9.08-.4-1 2.4 1.477 4.762 2.326 5.981a17.343 17.343 0 0 1 1.881 2.767c.259.628.333 1.293.592 1.957a43.874 43.874 0 0 0 1.92 4.947 17.386 17.386 0 0 0 1.364 2.287c.3.408.813.59.924 1.257a10.591 10.591 0 0 0-.85 2.768c-1.328 4.172-.813 9.339 1.071 12.4.589.923 1.994 2.954 3.876 2.177 1.661-.663 1.292-2.768 1.772-4.612.11-.446.036-.739.257-1.034v.075c.516 1.032 1.034 2.026 1.514 3.063a21.074 21.074 0 0 0 4.8 4.944c.883.667 1.585 1.809 2.692 2.217v-.112h-.072a4.086 4.086 0 0 0-.85-.737 18.217 18.217 0 0 1-1.919-2.215 47.232 47.232 0 0 1-4.133-6.719c-.592-1.147-1.108-2.4-1.588-3.544-.221-.441-.221-1.107-.591-1.328a13.857 13.857 0 0 0-1.771 2.507 20.859 20.859 0 0 0-1.035 5.576c-.147.039-.073 0-.147.073-1.18-.3-1.586-1.512-2.03-2.543a15.972 15.972 0 0 1-.332-9.859c.257-.773 1.368-3.21.923-3.948-.223-.7-.961-1.106-1.366-1.662a14.643 14.643 0 0 1-1.328-2.362c-.886-2.067-1.332-4.356-2.288-6.423a19.71 19.71 0 0 0-1.846-2.842 18.239 18.239 0 0 1-2.031-2.878c-.183-.407-.442-1.072-.148-1.513a.59.59 0 0 1 .518-.482c.477-.406 1.845.11 2.324.332a18.749 18.749 0 0 1 3.654 1.845c.517.37 1.071 1.071 1.734 1.257h.777c1.18.257 2.51.072 3.618.406a23.643 23.643 0 0 1 5.315 2.546 32.756 32.756 0 0 1 11.514 12.625c.444.848.63 1.624 1.036 2.508.775 1.812 1.736 3.658 2.509 5.428a24.253 24.253 0 0 0 2.624 4.947c.552.774 2.767 1.18 3.764 1.586a26.239 26.239 0 0 1 2.547 1.032c1.255.774 2.508 1.662 3.691 2.512.589.443 2.435 1.365 2.546 2.1" fill-rule="evenodd"/>
        <path d="M159.333 100.987h.81v-3.108h1.06v-.635h-2.971v.635h1.1v3.108zm6.164 0h.763v-3.743h-1.148l-.935 2.551-1.017-2.551h-1.107v3.743h.723v-2.849h.041l1.065 2.849h.551l1.064-2.849v2.849z"/>
    </g>
    <path d="M124.327 28.128a5.89 5.89 0 0 0-1.513.185v.074h.072a12.5 12.5 0 0 0 1.181 1.515c.3.59.556 1.179.851 1.769.036-.035.072-.074.072-.074a2.071 2.071 0 0 0 .778-1.845 8.417 8.417 0 0 1-.444-.775c-.221-.369-.7-.553-1-.849" fill="#0d758d" fill-rule="evenodd"/>
    <path d="M65.6 100.99h-5.113q-.27-12.945-1.493-24.348h-.045l-7.785 24.348h-3.893l-7.738-24.348h-.046q-.861 10.952-1.087 24.348h-4.66Q34.191 84.7 36 70.44h6.337l7.377 22.447h.046l7.424-22.447h6.064q1.992 16.7 2.353 30.55M87.777 78.45q-3.123 16.95-8.237 24.63-3.986 5.92-8.735 5.92a8.6 8.6 0 0 1-3.122-.76v-2.724a14.737 14.737 0 0 0 2.127.136 5.142 5.142 0 0 0 3.576-1.224 4.462 4.462 0 0 0 1.628-3.348 22.293 22.293 0 0 0-1.267-5.2l-5.611-17.43h5.023l4.027 13.033q1.357 4.438 1.132 6.2a85.161 85.161 0 0 0 4.617-19.233z" fill="#0d758d"/>
    <path fill="#f0902a" d="M155.844 100.99h-14.527V70.44h4.888v26.792h9.639v3.758z"/>
    <path d="M119.322 94.879q-1.856-2.988-1.857-9.594 0-11.54 7.015-11.542a5.892 5.892 0 0 1 5.387 2.76q1.854 2.988 1.856 9.5 0 11.633-7.016 11.633a5.881 5.881 0 0 1-5.385-2.762m18.194 6.848l-5.616-2.764a10.512 10.512 0 0 0 1.405-1.365q3.576-4.2 3.577-12.444 0-15.16-11.9-15.163-5.84 0-9.1 3.849-3.578 4.209-3.576 12.4 0 8.056 3.168 11.813 2.9 3.393 8.736 3.394a14.082 14.082 0 0 0 4-.537l7.313 4.256 1.994-3.434z" fill="#f0902a" fill-rule="evenodd"/>
    <path d="M110.176 92.522a8.109 8.109 0 0 1-2.85 6.382 11.224 11.224 0 0 1-7.645 2.488 15.331 15.331 0 0 1-8.69-2.853l1.309-2.624a14.889 14.889 0 0 0 6.56 1.809 6.887 6.887 0 0 0 4.322-1.218 4.163 4.163 0 0 0 1.662-3.393c0-1.814-1.265-3.365-3.586-4.665-2.143-1.176-6.425-3.631-6.425-3.631a7.318 7.318 0 0 1-3.484-6.5 7.6 7.6 0 0 1 2.6-6 9.815 9.815 0 0 1 6.722-2.287 13.909 13.909 0 0 1 7.737 2.265l-1.179 2.622a14.985 14.985 0 0 0-5.88-1.266 5.241 5.241 0 0 0-3.619 1.134 3.784 3.784 0 0 0-1.37 2.895c0 1.809 1.292 3.378 3.679 4.7 2.17 1.177 6.557 3.679 6.557 3.679 2.387 1.69 3.576 3.491 3.576 6.458" fill="#f0902a"/>
    <path d="M161.978 60.206a17.059 17.059 0 0 0-7.161 1.034c-.554.221-1.439.221-1.514.923.3.294.333.774.593 1.182a8.6 8.6 0 0 0 1.918 2.251c.775.591 1.55 1.179 2.364 1.7 1.438.89 3.063 1.4 4.464 2.291.814.516 1.623 1.18 2.438 1.735.405.3.661.775 1.18.958v-.112c-.26-.331-.333-.811-.59-1.182-.368-.367-.738-.7-1.108-1.068a17.567 17.567 0 0 0-3.838-3.727c-1.182-.814-3.767-1.922-4.245-3.284l-.075-.075a14.873 14.873 0 0 0 2.548-.6c1.253-.331 2.4-.256 3.69-.587.591-.149 1.182-.335 1.775-.516V60.8c-.668-.663-1.146-1.55-1.847-2.177a49.436 49.436 0 0 0-6.091-4.54c-1.146-.739-2.623-1.216-3.841-1.846-.441-.221-1.178-.331-1.438-.7a14.8 14.8 0 0 1-1.514-2.842c-1.07-2.028-2.105-4.279-3.026-6.423a39.458 39.458 0 0 0-1.883-4.207c-3.8-6.276-7.936-10.076-14.285-13.8a17.682 17.682 0 0 0-4.724-1.514c-.924-.039-1.846-.111-2.769-.147a14.819 14.819 0 0 1-1.7-1.294c-2.105-1.328-7.528-4.206-9.08-.4-1 2.4 1.477 4.762 2.326 5.981a17.343 17.343 0 0 1 1.881 2.767c.259.628.333 1.293.592 1.957a43.874 43.874 0 0 0 1.92 4.947 17.386 17.386 0 0 0 1.364 2.287c.3.408.813.59.924 1.257a10.591 10.591 0 0 0-.85 2.768c-1.328 4.172-.813 9.339 1.071 12.4.589.923 1.994 2.954 3.876 2.177 1.661-.663 1.292-2.768 1.772-4.612.11-.446.036-.739.257-1.034v.075c.516 1.032 1.034 2.026 1.514 3.063a21.074 21.074 0 0 0 4.8 4.944c.883.667 1.585 1.809 2.692 2.217v-.112h-.072a4.086 4.086 0 0 0-.85-.737 18.217 18.217 0 0 1-1.919-2.215 47.232 47.232 0 0 1-4.133-6.719c-.592-1.147-1.108-2.4-1.588-3.544-.221-.441-.221-1.107-.591-1.328a13.857 13.857 0 0 0-1.771 2.507 20.859 20.859 0 0 0-1.035 5.576c-.147.039-.073 0-.147.073-1.18-.3-1.586-1.512-2.03-2.543a15.972 15.972 0 0 1-.332-9.859c.257-.773 1.368-3.21.923-3.948-.223-.7-.961-1.106-1.366-1.662a14.643 14.643 0 0 1-1.328-2.362c-.886-2.067-1.332-4.356-2.288-6.423a19.71 19.71 0 0 0-1.846-2.842 18.239 18.239 0 0 1-2.031-2.878c-.183-.407-.442-1.072-.148-1.513a.59.59 0 0 1 .518-.482c.477-.406 1.845.11 2.324.332a18.749 18.749 0 0 1 3.654 1.845c.517.37 1.071 1.071 1.734 1.257h.777c1.18.257 2.51.072 3.618.406a23.643 23.643 0 0 1 5.315 2.546 32.756 32.756 0 0 1 11.514 12.625c.444.848.63 1.624 1.036 2.508.775 1.812 1.736 3.658 2.509 5.428a24.253 24.253 0 0 0 2.624 4.947c.552.774 2.767 1.18 3.764 1.586a26.239 26.239 0 0 1 2.547 1.032c1.255.774 2.508 1.662 3.691 2.512.589.443 2.435 1.365 2.546 2.1" fill="#0d758d" fill-rule="evenodd"/>
    <path d="M159.333 100.987h.81v-3.108h1.06v-.635h-2.971v.635h1.1v3.108zm6.164 0h.763v-3.743h-1.148l-.935 2.551-1.017-2.551h-1.107v3.743h.723v-2.849h.041l1.065 2.849h.551l1.064-2.849v2.849z" fill="#f0902a"/>
</svg>
