<svg width="618px" height="167px" viewBox="0 0 618 167" version="1.1" xmlns="http://www.w3.org/2000/svg" xmlns:xlink="http://www.w3.org/1999/xlink">
    <title>springboot</title>
    <g id="页面-1" stroke="none" stroke-width="1" fill="none" fill-rule="evenodd">
        <path d="M151.708352,120.175007 C131.133352,147.583341 87.2000183,138.333341 59.0250183,139.658341 C59.0250183,139.658341 54.0333517,139.941674 49.016685,140.766674 C49.016685,140.766674 50.916685,139.95834 53.341685,139.116674 C73.1250184,132.275007 82.4750184,130.900007 94.5000183,124.725007 C117.083352,113.158341 139.566685,87.9500072 144.141685,61.7666738 C135.541685,86.9500072 109.391685,108.625007 85.5833517,117.425007 C69.291685,123.441674 39.816685,129.291674 39.8083517,129.291674 C39.4079152,129.086667 39.0106462,128.875531 38.616685,128.658341 C18.5750184,118.908341 17.991685,75.491674 54.4000183,61.5000072 C70.3666849,55.3666738 85.6250183,58.7333406 102.883352,54.6250072 C121.283352,50.2500072 142.600018,36.4583406 151.258352,18.4250072 C160.966685,47.2416738 172.633352,92.3083406 151.708352,120.175007 L151.708352,120.175007 Z M152.058352,9.50834056 C149.730684,15.0895722 146.751699,20.3762219 143.183352,25.2583406 C127.511586,9.10618007 105.963829,-0.00659408589 83.4583517,3.58004866e-06 C37.4333517,3.58004866e-06 9.11867672e-06,37.4333406 9.11867672e-06,83.4500072 C-0.0108464635,106.655627 9.67123162,128.811121 26.7083517,144.566674 L28.541685,146.183341 C25.75906,143.396115 25.7618572,138.881145 28.5479337,136.097369 C31.3340101,133.313593 35.8489803,133.314526 38.6339068,136.099452 C41.4188332,138.884378 41.4197656,143.399349 38.6359896,146.185425 C35.8522137,148.971502 31.3372442,148.974299 28.5500183,146.191674 L29.791685,147.291674 C44.7950475,159.976151 63.8115581,166.927217 83.4583517,166.908379 C127.441685,166.908379 163.566685,132.675007 166.658352,89.4750072 C168.941685,68.3166738 162.691685,41.4500072 152.058352,9.50834056 M277.656936,101.175066 C277.656936,106.692644 276.364258,109.925293 273.678711,113.855957 C270.993164,117.786621 267.025879,120.765137 261.776855,122.791504 C256.527832,124.817871 250.143555,125.831055 242.624023,125.831055 C235.446289,125.831055 229.293945,124.732422 224.166992,122.535156 C219.040039,120.337891 215.255859,117.591309 212.814453,114.29541 C210.373047,110.999512 209.152344,107.691406 209.152344,104.371094 C209.152344,102.173828 209.543281,100.225571 211.014095,98.8613718 C212.484909,97.4971726 214.155836,96.550808 218.117886,96.7722721 C222.079937,96.9937362 224.728055,100.6423 225.753445,102.497769 C227.804226,106.062222 233.630921,110.985041 244.340564,110.8398 C255.407404,110.689714 257.590978,106.088583 257.929031,103.094919 C258.241869,100.324555 256.894043,97.9990234 254.23291,96.3876953 C251.571777,94.7763672 247.189453,93.2382812 241.085938,91.7734375 C234.201172,90.0644531 228.598145,88.2700195 224.276855,86.3901367 C219.955566,84.5102539 216.500977,82.0322266 213.913086,78.9560547 C211.325195,75.8798828 210.03125,72.0957031 210.03125,67.6035156 C210.03125,63.5996094 211.227539,59.8154297 213.620117,56.2509766 C216.012695,52.6865234 219.540527,49.8422852 224.203613,47.7182617 C228.866699,45.5942383 234.494141,44.5322266 241.085938,44.5322266 C246.261719,44.5322266 250.912598,45.0693359 255.038574,46.1435547 C259.164551,47.2177734 262.606934,48.6582031 265.365723,50.4648437 C268.124512,52.2714844 270.224121,54.2734375 271.664551,56.4707031 C273.10498,58.6679687 273.825195,60.8164062 273.825195,62.9160156 C273.825195,65.2109375 273.164968,67.2678915 271.518066,68.5556641 C270.432389,69.4045947 267.31645,70.5433258 263.748856,69.5355914 C260.318193,68.5665356 259.052919,66.2697317 258.143337,65.120786 C256.211993,62.7652503 254.196056,60.7307265 251.211171,59.3356804 C248.226286,57.9406344 244.601563,57.2763672 241.085938,57.2763672 C237.472656,57.2763672 234.469727,58.0454102 232.077148,59.5834961 C229.68457,61.121582 228.559482,63.0225466 228.559482,65.3174685 C228.559482,67.4170779 229.367188,69.1538086 231.125,70.496582 C232.882813,71.8393555 235.250977,72.9501953 238.229492,73.8291016 C241.208008,74.7080078 245.30957,75.7822266 250.53418,77.0517578 C256.735352,78.5654297 261.80127,80.3720703 265.731934,82.4716797 C269.662598,84.5712891 272.641113,87.0493164 274.66748,89.9057617 C276.693848,92.762207 277.656936,95.95435 277.656936,101.175066 Z M304.883008,55.7382812 L304.883008,58.1552734 C308.642773,53.5166016 312.549023,50.1108398 316.601758,47.9379883 C320.654492,45.7651367 325.244336,44.6787109 330.371289,44.6787109 C336.523633,44.6787109 342.187695,46.265625 347.363477,49.4394531 C352.539258,52.6132812 356.628613,57.2519531 359.631543,63.3554688 C362.634473,69.4589844 364.135938,76.6855469 364.135938,85.0351562 C364.135938,91.1875 363.269238,96.8393555 361.53584,101.990723 C359.802441,107.14209 357.42207,111.463379 354.394727,114.95459 C351.367383,118.445801 347.790723,121.131348 343.664746,123.01123 C339.53877,124.891113 335.107617,125.831055 330.371289,125.831055 C324.658398,125.831055 319.861035,124.683594 315.979199,122.388672 C312.097363,120.09375 308.398633,116.724609 304.883008,112.28125 L304.883008,142.310547 C304.883008,151.099609 301.684766,155.494141 295.288281,155.494141 C291.528516,155.494141 289.038281,154.358887 287.817578,152.088379 C286.596875,149.817871 285.986523,146.509766 285.986523,142.164062 L285.986523,55.8847656 C285.986523,52.0761719 286.816602,49.2319336 288.476758,47.3520508 C290.136914,45.472168 292.407422,44.5322266 295.288281,44.5322266 C298.120313,44.5322266 300.427441,45.496582 302.209668,47.425293 C303.991895,49.3540039 304.883008,52.125 304.883008,55.7382812 Z M344.067578,84.8154297 C344.067578,79.5419922 343.261914,75.0131836 341.650586,71.2290039 C340.039258,67.4448242 337.805371,64.5395508 334.948926,62.5131836 C332.09248,60.4868164 328.930859,59.4736328 325.464063,59.4736328 C319.946484,59.4736328 315.295605,61.6464844 311.511426,65.9921875 C307.727246,70.3378906 305.835156,76.734375 305.835156,85.1816406 C305.835156,93.140625 307.715039,99.3295898 311.474805,103.748535 C315.23457,108.16748 319.897656,110.376953 325.464063,110.376953 C328.784375,110.376953 331.860547,109.412598 334.692578,107.483887 C337.524609,105.555176 339.795117,102.662109 341.504102,98.8046875 C343.213086,94.9472656 344.067578,90.2841797 344.067578,84.8154297 Z M391.824609,96.9736328 L391.824609,113.672852 C391.824609,117.725586 390.872461,120.765137 388.968164,122.791504 C387.063867,124.817871 384.646875,125.831055 381.717188,125.831055 C378.836328,125.831055 376.468164,124.805664 374.612695,122.754883 C372.757227,120.704102 371.829492,117.676758 371.829492,113.672852 L371.829492,58.0087891 C371.829492,49.0244141 375.076563,44.5322266 381.570703,44.5322266 C384.891016,44.5322266 387.649295,45.7845302 388.938374,47.3415164 C390.227453,48.8985027 391.014703,50.5163984 391.16543,54.1774942 C393.558008,50.0759317 396.538847,44.5322266 408.59707,44.5322266 C412.796289,44.5322266 416.873438,45.5820312 420.828516,47.6816406 C424.783594,49.78125 426.761133,52.5644531 426.761133,56.03125 C426.761133,58.4726563 425.918848,60.4868164 424.234277,62.0737305 C422.549707,63.6606445 420.730859,64.4541016 418.777734,64.4541016 C418.045313,64.4541016 416.275293,64.0024414 413.467676,63.0991211 C410.660059,62.1958008 408.181637,61.6832155 406.033594,61.7441406 C399.23193,61.9370568 395.559961,67.8720703 394.53457,70.8994141 C393.50918,73.9267578 392.801172,77.527832 392.410547,81.7026367 C392.019922,85.8774414 391.824609,90.9677734 391.824609,96.9736328 Z M449.469336,55.8847656 L449.469336,113.672852 C449.469336,117.676758 448.517187,120.704102 446.612891,122.754883 C444.708594,124.805664 442.291602,125.831055 439.361914,125.831055 C436.432227,125.831055 434.051855,124.78125 432.220801,122.681641 C430.389746,120.582031 429.474219,117.579102 429.474219,113.672852 L429.474219,56.4707031 C429.474219,52.515625 430.389746,49.5371094 432.220801,47.5351562 C434.051855,45.5332031 436.432227,44.5322266 439.361914,44.5322266 C442.291602,44.5322266 444.708594,45.5332031 446.612891,47.5351562 C448.517187,49.5371094 449.469336,52.3203125 449.469336,55.8847656 Z M439.581641,35.2304688 C436.798437,35.2304688 434.418066,34.3759766 432.440527,32.6669922 C430.462988,30.9580078 429.474219,28.5410156 429.474219,25.4160156 C429.474219,22.5839844 430.487402,20.2524414 432.51377,18.4213867 C434.540137,16.590332 436.896094,15.6748047 439.581641,15.6748047 C442.169531,15.6748047 444.464453,16.5048828 446.466406,18.1650391 C448.468359,19.8251953 449.469336,22.2421875 449.469336,25.4160156 C449.469336,28.4921875 448.492773,30.8969727 446.539648,32.6303711 C444.586523,34.3637695 442.267187,35.2304688 439.581641,35.2304688 Z M480.087695,55.5917969 L480.087695,58.0087891 C483.60332,53.3701172 487.448535,49.9643555 491.62334,47.7915039 C495.798145,45.6186523 500.595508,44.5322266 506.01543,44.5322266 C511.288867,44.5322266 516.000781,45.6796875 520.151172,47.9746094 C524.301562,50.2695312 527.402148,53.5166016 529.45293,57.7158203 C530.771289,60.1572266 531.625781,62.7939453 532.016406,65.6259766 C532.407031,68.4580078 532.602344,72.0712891 532.602344,76.4658203 L532.602344,113.672852 C532.602344,117.676758 531.686816,120.704102 529.855762,122.754883 C528.024707,124.805664 525.644336,125.831055 522.714648,125.831055 C519.736133,125.831055 517.319141,124.78125 515.463672,122.681641 C513.608203,120.582031 512.680469,117.579102 512.680469,113.672852 L512.680469,80.3476562 C512.680469,73.7558594 511.764941,68.7143555 509.933887,65.2231445 C508.102832,61.7319336 504.45293,59.9863281 498.98418,59.9863281 C495.419727,59.9863281 492.172656,61.0483398 489.242969,63.1723633 C486.313281,65.2963867 484.164844,68.2138672 482.797656,71.9248047 C481.821094,74.9033203 481.332812,80.4697266 481.332812,88.6240234 L481.332812,113.672852 C481.332812,117.725586 480.392871,120.765137 478.512988,122.791504 C476.633105,124.817871 474.203906,125.831055 471.225391,125.831055 C468.344531,125.831055 465.976367,124.78125 464.120898,122.681641 C462.26543,120.582031 461.337695,117.579102 461.337695,113.672852 L461.337695,55.8847656 C461.337695,52.0761719 462.167773,49.2319336 463.82793,47.3520508 C465.488086,45.472168 467.758594,44.5322266 470.639453,44.5322266 C472.397266,44.5322266 473.98418,44.9472656 475.400195,45.7773438 C476.816211,46.6074219 477.951465,47.8525391 478.805957,49.5126953 C479.660449,51.1728516 480.087695,53.1992188 480.087695,55.5917969 Z M617.859375,59.1806641 L617.859375,117.261719 C617.859375,123.902344 617.151367,129.615234 615.735352,134.400391 C614.319336,139.185547 612.048828,143.140625 608.923828,146.265625 C605.798828,149.390625 601.709473,151.709961 596.655762,153.223633 C591.602051,154.737305 585.31543,155.494141 577.795898,155.494141 C570.911133,155.494141 564.758789,154.529785 559.338867,152.601074 C553.918945,150.672363 549.744141,148.182129 546.814453,145.130371 C543.884766,142.078613 542.419922,138.941406 542.419922,135.71875 C542.419922,133.277344 543.25,131.287598 544.910156,129.749512 C546.570312,128.211426 548.572266,127.442383 550.916016,127.442383 C553.845703,127.442383 556.40918,128.736328 558.606445,131.324219 C562.69362,136.58515 577.708986,141.48537 589.942083,136.846003 C595.565909,134.713183 597.122725,130.20173 597.571289,125.062012 C598.019853,119.922294 597.913086,117.359375 598.010742,110.816406 C594.93457,115.113281 591.382324,118.384766 587.354004,120.630859 C583.325684,122.876953 578.52832,124 572.961914,124 C566.272461,124 560.425293,122.291016 555.42041,118.873047 C550.415527,115.455078 546.570312,110.669922 543.884766,104.517578 C541.199219,98.3652344 539.856445,91.2607422 539.856445,83.2041016 C539.856445,77.1982422 540.674316,71.7783203 542.310059,66.9443359 C543.945801,62.1103516 546.277344,58.0332031 549.304688,54.7128906 C552.332031,51.3925781 555.823242,48.8901367 559.77832,47.2055664 C563.733398,45.5209961 568.079102,44.6787109 572.81543,44.6787109 C578.479492,44.6787109 583.386719,45.7651367 587.537109,47.9379883 C591.6875,50.1108398 595.544922,53.5166016 599.109375,58.1552734 L599.109375,55.4453125 C599.109375,51.9785156 599.963867,49.2929688 601.672852,47.3886719 C603.381836,45.484375 605.579102,44.5322266 608.264648,44.5322266 C612.12207,44.5322266 614.685547,45.7895508 615.955078,48.3041992 C617.224609,50.8188477 617.859375,54.4443359 617.859375,59.1806641 Z M559.924805,84.5224609 C559.924805,92.6279297 561.694824,98.7558594 565.234863,102.90625 C568.774902,107.056641 573.352539,109.131836 578.967773,109.131836 C582.288086,109.131836 585.425293,108.240723 588.379395,106.458496 C591.333496,104.67627 593.738281,101.990723 595.59375,98.4018555 C597.449219,94.8129883 598.376953,90.4550781 598.376953,85.328125 C598.376953,77.1738281 596.58252,70.8261719 592.993652,66.2851562 C589.404785,61.7441406 584.680664,59.4736328 578.821289,59.4736328 C573.108398,59.4736328 568.530762,61.6464844 565.088379,65.9921875 C561.645996,70.3378906 559.924805,76.5146484 559.924805,84.5224609 Z" id="springboot" fill="#66B622" fill-rule="nonzero"></path>
    </g>
</svg>
